<svg width="2812" height="455" viewBox="0 0 2812 455" fill="none" xmlns="http://www.w3.org/2000/svg">
<path d="M2771.59 245.181L2722.1 278.591C2722.1 244.768 2715.91 218.783 2703.54 200.634C2691.16 182.486 2673.22 173.412 2649.71 173.412C2626.2 173.412 2608.26 182.486 2595.88 200.634C2583.92 218.783 2577.94 245.181 2577.94 279.828C2577.94 313.65 2584.33 339.636 2597.12 357.784C2610.32 375.933 2629.09 385.007 2653.42 385.007C2670.75 385.007 2684.98 381.089 2696.11 373.252C2707.66 365.415 2715.91 353.247 2720.86 336.749H2811.81C2803.15 375.108 2784.59 404.393 2756.13 424.604C2727.67 444.815 2693.43 454.921 2653.42 454.921C2619.6 454.921 2590.31 447.909 2565.57 433.885C2541.23 419.861 2522.46 399.856 2509.26 373.871C2496.07 347.473 2489.47 316.125 2489.47 279.828C2489.47 242.294 2496.07 210.534 2509.26 184.548C2522.46 158.15 2541.02 138.146 2564.95 124.534C2589.28 110.51 2617.54 103.498 2649.71 103.498C2682.71 103.498 2710.96 110.51 2734.47 124.534C2758.39 138.558 2776.75 158.563 2789.54 184.548C2802.74 210.534 2809.33 241.469 2809.33 277.353V297.152H2524.73V245.181H2771.59Z" fill="#BDEE63"/>
<path d="M2133.14 445.64V113.398H2220.37V445.64H2133.14ZM2220.37 253.843H2195.01C2197.07 219.608 2203.46 191.56 2214.18 169.699C2224.91 147.426 2239.14 130.927 2256.88 120.203C2274.61 109.067 2294.82 103.498 2317.51 103.498C2339.37 103.498 2358.55 108.035 2375.05 117.11C2391.96 125.772 2405.16 138.97 2414.64 156.707C2424.54 174.443 2429.49 196.922 2429.49 224.145V445.64H2342.26V241.469C2342.26 227.032 2340.19 214.864 2336.07 204.965C2332.36 195.066 2326.38 187.642 2318.13 182.692C2309.88 177.33 2299.36 174.649 2286.57 174.649C2276.67 174.649 2267.6 176.711 2259.35 180.836C2251.1 184.961 2244.09 190.735 2238.31 198.16C2232.54 205.172 2228 213.421 2224.7 222.908C2221.82 232.394 2220.37 242.706 2220.37 253.843Z" fill="#BDEE63"/>
<path d="M1971.7 445.672V113.43H2058.94V445.672H1971.7ZM1971.7 78.1636V0.207275H2058.94V78.1636H1971.7Z" fill="#BDEE63"/>
<path d="M1810.2 445.672V0.207275H1897.44V445.672H1810.2Z" fill="#BDEE63"/>
<path d="M1710.62 245.181L1661.12 278.591C1661.12 244.768 1654.94 218.783 1642.56 200.634C1630.19 182.486 1612.25 173.412 1588.74 173.412C1565.22 173.412 1547.28 182.486 1534.91 200.634C1522.95 218.783 1516.97 245.181 1516.97 279.828C1516.97 313.65 1523.36 339.636 1536.15 357.784C1549.34 375.933 1568.11 385.007 1592.45 385.007C1609.77 385.007 1624 381.089 1635.14 373.252C1646.69 365.415 1654.94 353.247 1659.89 336.749H1750.83C1742.17 375.108 1723.61 404.393 1695.15 424.604C1666.69 444.815 1632.46 454.921 1592.45 454.921C1558.63 454.921 1529.34 447.909 1504.59 433.885C1480.26 419.861 1461.49 399.856 1448.29 373.871C1435.09 347.473 1428.49 316.125 1428.49 279.828C1428.49 242.294 1435.09 210.534 1448.29 184.548C1461.49 158.15 1480.05 138.146 1503.97 124.534C1528.31 110.51 1556.56 103.498 1588.74 103.498C1621.73 103.498 1649.99 110.51 1673.5 124.534C1697.42 138.558 1715.78 158.563 1728.56 184.548C1741.76 210.534 1748.36 241.469 1748.36 277.353V297.152H1463.76V245.181H1710.62Z" fill="#BDEE63"/>
<path d="M1179.08 203.728C1179.08 214.04 1182.79 222.083 1190.21 227.857C1197.64 233.219 1207.54 237.344 1219.91 240.231C1232.29 243.119 1245.9 245.8 1260.75 248.274C1275.6 250.337 1290.24 253.224 1304.67 256.936C1319.52 260.648 1333.13 266.01 1345.51 273.022C1357.88 279.622 1367.78 288.696 1375.21 300.245C1382.63 311.794 1386.34 327.056 1386.34 346.029C1386.34 367.477 1380.16 386.451 1367.78 402.95C1355.41 419.448 1338.29 432.235 1316.43 441.309C1294.98 450.383 1270.03 454.921 1241.57 454.921C1200.32 454.921 1165.67 445.434 1137.62 426.46C1109.99 407.074 1093.28 377.17 1087.51 336.749H1174.13C1176.6 353.247 1184.03 366.034 1196.4 375.108C1209.19 384.182 1225.07 388.72 1244.04 388.72C1262.6 388.72 1276.42 385.42 1285.49 378.82C1294.57 371.808 1299.11 362.734 1299.11 351.597C1299.11 341.698 1295.39 334.068 1287.97 328.706C1280.96 323.343 1271.26 319.219 1258.89 316.331C1246.93 313.444 1233.73 310.763 1219.29 308.288C1204.86 305.814 1190.42 302.926 1175.98 299.627C1161.55 295.914 1148.14 290.759 1135.77 284.159C1123.81 277.147 1114.11 267.66 1106.69 255.699C1099.68 243.737 1096.17 228.063 1096.17 208.677C1096.17 190.529 1100.92 173.618 1110.4 157.944C1120.3 141.858 1134.94 128.865 1154.33 118.966C1173.72 108.654 1198.05 103.498 1227.34 103.498C1253.32 103.498 1276.63 107.829 1297.25 116.491C1318.29 124.74 1335.61 137.733 1349.22 155.469C1362.83 172.793 1371.08 195.272 1373.97 222.908H1287.35C1284.46 204.347 1277.66 190.941 1266.93 182.692C1256.21 174.443 1241.98 170.318 1224.24 170.318C1210.22 170.318 1199.08 173.618 1190.83 180.217C1183 186.404 1179.08 194.241 1179.08 203.728Z" fill="#BDEE63"/>
<path d="M821.516 222.908H734.898C738.198 198.16 746.241 176.918 759.027 159.181C772.226 141.445 789.343 127.834 810.379 118.347C831.828 108.448 856.576 103.498 884.623 103.498C915.971 103.498 942.163 109.273 963.199 120.822C984.234 131.959 1000.11 147.426 1010.84 167.225C1021.56 187.023 1026.92 209.915 1026.92 235.9V363.971C1026.92 384.595 1027.75 401.3 1029.4 414.086C1031.46 426.46 1033.94 436.978 1036.82 445.64H946.494C943.606 437.391 941.75 427.079 940.925 414.705C940.1 401.918 939.688 388.926 939.688 375.727V235.282C939.688 215.483 934.738 200.428 924.839 190.116C915.352 179.805 900.503 174.649 880.293 174.649C862.556 174.649 848.945 179.186 839.458 188.26C829.971 196.922 823.991 208.471 821.516 222.908ZM950.824 243.325V294.677C922.364 294.677 898.854 296.327 880.293 299.627C862.144 302.514 847.914 306.639 837.602 312.001C827.703 317.363 820.691 323.756 816.566 331.18C812.442 338.192 810.379 345.823 810.379 354.072C810.379 366.034 814.71 375.521 823.372 382.532C832.034 389.544 843.789 393.05 858.638 393.05C873.487 393.05 887.098 389.338 899.472 381.914C911.846 374.489 921.539 364.384 928.551 351.597C935.976 338.398 939.688 323.962 939.688 308.288H970.004C968.354 334.686 963.405 357.166 955.155 375.727C946.906 394.288 936.388 409.549 923.602 421.511C910.815 433.06 896.585 441.515 880.911 446.877C865.65 452.24 849.976 454.921 833.89 454.921C812.442 454.921 793.262 451.415 776.351 444.403C759.852 437.391 746.859 426.667 737.373 412.23C727.886 397.794 723.142 380.058 723.142 359.022C723.142 336.336 729.536 316.744 742.322 300.245C755.109 283.747 774.495 271.166 800.48 262.505C823.578 254.255 847.089 249.099 871.012 247.037C894.935 244.562 921.539 243.325 950.824 243.325Z" fill="#BDEE63"/>
<path d="M537.646 103.53C566.518 103.53 591.266 110.749 611.89 125.185C632.926 139.209 649.012 159.42 660.148 185.818C671.285 211.803 676.853 242.944 676.853 279.241C676.853 335.75 664.067 379.265 638.494 409.787C613.333 439.898 579.717 454.953 537.646 454.953C500.936 454.953 472.063 439.898 451.028 409.787C429.992 379.677 419.474 336.162 419.474 279.241C419.474 242.532 424.217 211.184 433.704 185.199C443.603 158.801 457.421 138.59 475.157 124.566C492.893 110.542 513.723 103.53 537.646 103.53ZM520.322 174.681C498.049 174.681 481.138 183.549 469.589 201.285C458.04 219.021 452.265 245.007 452.265 279.241C452.265 313.064 458.04 339.049 469.589 357.198C481.55 374.934 498.461 383.802 520.322 383.802C542.595 383.802 559.3 374.934 570.437 357.198C581.986 339.049 587.761 313.064 587.761 279.241C587.761 245.419 581.986 219.64 570.437 201.904C558.888 183.755 542.183 174.681 520.322 174.681ZM452.265 445.672H365.028V0.207275H452.265V445.672Z" fill="#BDEE63"/>
<path d="M0 445.672L185.394 0.207275H290.828L105.434 445.672H0Z" fill="#BDEE63"/>
</svg>
